<?xml version="1.0" encoding="utf-8"?>
<!-- Generator: Adobe Illustrator 24.0.0, SVG Export Plug-In . SVG Version: 6.00 Build 0)  -->
<svg version="1.1" id="图层_1" xmlns="http://www.w3.org/2000/svg" xmlns:xlink="http://www.w3.org/1999/xlink" x="0px" y="0px"
	 viewBox="0 0 21 20.7" style="enable-background:new 0 0 21 20.7;" xml:space="preserve">
<style type="text/css">
	.st0{fill:#1c6bd6;}
</style>
<g id="组_18025" transform="translate(-16 -2)">
	<g id="组_18022" transform="translate(1443)">
		<path id="联合_898" class="st0" d="M-1424.5,22.2c-1.1,0-2-0.9-2-2v-10c0-0.8,0.5-1.6,1.3-1.9V8.2c0-1.2,0.8-2.3,2-2.6V5.2
			c0-1.5,1.2-2.7,2.7-2.7c0,0,0,0,0,0h8c1.5,0,2.7,1.2,2.7,2.7l0,0v0.4c1.2,0.3,2,1.4,2,2.6v0.1c0.8,0.3,1.3,1,1.3,1.9v10
			c0,1.1-0.9,2-2,2H-1424.5z M-1424.5,11.2v8c0,0.6,0.4,1,1,1h14c0.6,0,1-0.4,1-1v-8c0-0.6-0.4-1-1-1h-14
			C-1424.1,10.2-1424.5,10.6-1424.5,11.2z M-1409.2,8.2c0-0.7-0.6-1.3-1.3-1.3h-12c-0.7,0-1.3,0.6-1.3,1.3H-1409.2z M-1411.2,5.5
			V5.2c0-0.7-0.6-1.3-1.3-1.3h-8c-0.7,0-1.3,0.6-1.3,1.3v0.3H-1411.2z M-1416.5,16.6l-2.1,2.1l-1.4-1.4l2.1-2.1l-2.1-2.1l1.4-1.4
			l2.1,2.1l2.1-2.1l1.4,1.4l-2.1,2.1l2.1,2.1l-1.4,1.4L-1416.5,16.6z"/>
	</g>
</g>
</svg>
