<?xml version="1.0" encoding="utf-8"?>
<!-- Generator: Adobe Illustrator 24.0.0, SVG Export Plug-In . SVG Version: 6.00 Build 0)  -->
<svg version="1.1" id="图层_1" xmlns="http://www.w3.org/2000/svg" xmlns:xlink="http://www.w3.org/1999/xlink" x="0px" y="0px"
	 viewBox="0 0 20 20" style="enable-background:new 0 0 20 20;" xml:space="preserve">
<style type="text/css">
	.st0{fill:#FFFFFF;}
</style>
<path id="路径_18918" class="st0" d="M11.7,15.7c-0.9-0.6-1.6-1.5-2-2.5l0-0.1l0-0.1c0.7-2,2.6-3.3,4.8-3.3c1,0,2,0.3,2.8,0.8
	c0.9,0.6,1.6,1.5,2,2.5l0,0.1l0,0.1c-0.4,1-1.1,1.9-2,2.5c-0.8,0.5-1.8,0.8-2.8,0.8C13.5,16.5,12.5,16.2,11.7,15.7z M11.1,13.1
	c0.6,1.3,1.9,2.1,3.4,2c1.4,0,2.7-0.8,3.4-2.1c-0.6-1.3-1.9-2.1-3.4-2C13.1,11,11.8,11.8,11.1,13.1L11.1,13.1z M3.5,16
	C2.7,16,2,15.3,2,14.5v-10C2,3.7,2.7,3,3.5,3h13C17.3,3,18,3.7,18,4.5V8h-2V5H4v9h4v2H3.5z M12.7,13.1c0-1,0.8-1.8,1.8-1.8
	c0,0,0,0,0,0c1,0,1.8,0.8,1.8,1.8c0,0,0,0,0,0c0,1-0.8,1.8-1.8,1.8c0,0,0,0,0,0C13.5,14.9,12.7,14.1,12.7,13.1
	C12.7,13.1,12.7,13.1,12.7,13.1L12.7,13.1z M14,13.1c0,0.2,0.2,0.4,0.5,0.4c0.2,0,0.4-0.2,0.4-0.4c0-0.2-0.2-0.4-0.4-0.5
	C14.3,12.7,14.1,12.9,14,13.1L14,13.1z"/>
</svg>
