<?xml version="1.0" encoding="utf-8"?>
<!-- Generator: Adobe Illustrator 24.0.0, SVG Export Plug-In . SVG Version: 6.00 Build 0)  -->
<svg version="1.1" id="图层_1" xmlns="http://www.w3.org/2000/svg" xmlns:xlink="http://www.w3.org/1999/xlink" x="0px" y="0px"
	 viewBox="0 0 20 20" style="enable-background:new 0 0 20 20;" xml:space="preserve">
<style type="text/css">
	.st0{fill:#428AE3;}
</style>
<path id="路径_18919" class="st0" d="M10.9,16l0.5-0.5l0,0c-0.8-0.6-1.3-1.4-1.7-2.3l0-0.1l0-0.1c0.7-2,2.6-3.3,4.8-3.3
	c0.6,0,1.1,0.1,1.6,0.3L16.9,9l1.1,1l-6,7L10.9,16z M11.1,13.1c0.3,0.5,0.7,1,1.1,1.4l0.6-0.7l0,0c-0.1-0.2-0.1-0.5-0.1-0.7
	c0-1,0.8-1.8,1.8-1.8c0,0,0,0,0,0c0.1,0,0.3,0,0.4,0l-0.3,0.3l0.6-0.8l-0.2,0.2c-0.2,0-0.4-0.1-0.6-0.1C13.1,11,11.8,11.8,11.1,13.1
	L11.1,13.1z M14.1,16.5l1.3-1.4c1.1-0.2,2-1,2.5-2c-0.1-0.2-0.2-0.4-0.3-0.6l0.9-1c0.4,0.4,0.7,0.9,0.9,1.5l0,0.1l0,0.1
	c-0.4,1-1.1,1.9-2,2.5c-0.8,0.5-1.8,0.8-2.8,0.8C14.4,16.5,14.2,16.5,14.1,16.5L14.1,16.5z M3.5,16C2.7,16,2,15.3,2,14.5v-10
	C2,3.7,2.7,3,3.5,3h13C17.3,3,18,3.7,18,4.5V8h-2V5H4v9h4v2H3.5z"/>
</svg>
