<?xml version="1.0" encoding="utf-8"?>
<!-- Generator: Adobe Illustrator 24.0.0, SVG Export Plug-In . SVG Version: 6.00 Build 0)  -->
<svg version="1.1" id="图层_1" xmlns="http://www.w3.org/2000/svg" xmlns:xlink="http://www.w3.org/1999/xlink" x="0px" y="0px"
	 viewBox="0 0 20 20" style="enable-background:new 0 0 20 20;" xml:space="preserve">
<style type="text/css">
	.st0{fill:#FFFFFF;}
</style>
<path id="联合_40" class="st0" d="M2,10c0-1.1,0.2-2.1,0.6-3.1l0,0v0L6.7,11H4.1c0.5,3.3,3.6,5.5,6.9,4.9c1.2-0.2,2.3-0.8,3.2-1.6
	l1.4,1.4c-3.2,3.1-8.2,3-11.3-0.2C2.8,14.1,2,12.1,2,10z M13,9h2.9C15.4,5.7,12.3,3.5,9,4.1C7.8,4.3,6.6,4.9,5.7,5.8L4.3,4.4
	c3.1-3.1,8.2-3.2,11.3-0.1C17.1,5.8,18,7.9,18,10c0,1.1-0.2,2.2-0.7,3.2l0,0v0L13,9z"/>
</svg>
