<?xml version="1.0" encoding="utf-8"?>
<!-- Generator: Adobe Illustrator 24.0.0, SVG Export Plug-In . SVG Version: 6.00 Build 0)  -->
<svg version="1.1" id="图层_1" xmlns="http://www.w3.org/2000/svg" xmlns:xlink="http://www.w3.org/1999/xlink" x="0px" y="0px"
	 viewBox="0 0 21 20" style="enable-background:new 0 0 21 20;" xml:space="preserve">
<style type="text/css">
	.st0{fill:#B2BAC2;}
</style>
<path id="联合_889" class="st0" d="M2.5,19c-1.1,0-2-0.9-2-2V3c0-1.1,0.9-2,2-2h16c1.1,0,2,0.9,2,2v14c0,1.1-0.9,2-2,2H2.5z
	 M2.5,4v12c0,0.6,0.4,1,1,1h14c0.6,0,1-0.4,1-1V4c0-0.6-0.4-1-1-1h-14C2.9,3,2.5,3.4,2.5,4z M11.5,16c-0.3,0-0.5-0.2-0.5-0.5V11
	c0-0.3,0.2-0.5,0.5-0.5H17c0.3,0,0.5,0.2,0.5,0.5v4.5c0,0.3-0.2,0.5-0.5,0.5H11.5z M4,16c-0.3,0-0.5-0.2-0.5-0.5v-11
	C3.5,4.2,3.7,4,4,4h5.5C9.8,4,10,4.2,10,4.5v11c0,0.3-0.2,0.5-0.5,0.5H4z M11.5,9.5C11.2,9.5,11,9.3,11,9V4.5C11,4.2,11.2,4,11.5,4
	H17c0.3,0,0.5,0.2,0.5,0.5V9c0,0.3-0.2,0.5-0.5,0.5H11.5z"/>
</svg>
