<?xml version="1.0" encoding="utf-8"?>
<!-- Generator: Adobe Illustrator 24.0.0, SVG Export Plug-In . SVG Version: 6.00 Build 0)  -->
<svg version="1.1" id="图层_1" xmlns="http://www.w3.org/2000/svg" xmlns:xlink="http://www.w3.org/1999/xlink" x="0px" y="0px"
	 viewBox="0 0 21 20" style="enable-background:new 0 0 21 20;" xml:space="preserve">
<style type="text/css">
	.st0{fill:#1c6bd6;}
</style>
<path id="联合_895" class="st0" d="M2.5,19c-1.1,0-2-0.9-2-2V3c0-1.1,0.9-2,2-2h16c1.1,0,2,0.9,2,2v14c0,1.1-0.9,2-2,2H2.5z
	 M2.5,4v12c0,0.6,0.4,1,1,1h14c0.6,0,1-0.4,1-1V4c0-0.6-0.4-1-1-1h-14C2.9,3,2.5,3.4,2.5,4z M14.9,16c-0.3,0-0.5-0.2-0.5-0.5v-1.5
	c0-0.3,0.2-0.5,0.5-0.5h1.9c0.3,0,0.5,0.2,0.5,0.5v1.5c0,0.3-0.2,0.5-0.5,0.5L14.9,16z M11.2,16c-0.3,0-0.5-0.2-0.5-0.5v-1.5
	c0-0.3,0.2-0.5,0.5-0.5h1.9c0.3,0,0.5,0.2,0.5,0.5v1.5c0,0.3-0.2,0.5-0.5,0.5L11.2,16z M7.4,16c-0.3,0-0.5-0.2-0.5-0.5v-1.5
	c0-0.3,0.2-0.5,0.5-0.5h1.9c0.3,0,0.5,0.2,0.5,0.5v1.5c0,0.3-0.2,0.5-0.5,0.5L7.4,16z M4,16c-0.3,0-0.5-0.2-0.5-0.5v-1.5
	c0-0.3,0.2-0.5,0.5-0.5h1.9c0.3,0,0.5,0.2,0.5,0.5v1.5c0,0.3-0.2,0.5-0.5,0.5L4,16z M14.9,12.8c-0.3,0-0.5-0.2-0.5-0.5v-1.5
	c0-0.3,0.2-0.5,0.5-0.5h1.9c0.3,0,0.5,0.2,0.5,0.5v1.5c0,0.3-0.2,0.5-0.5,0.5L14.9,12.8z M4,12.8c-0.3,0-0.5-0.2-0.5-0.5V4.7
	c0-0.3,0.2-0.5,0.5-0.5h8.7c0.3,0,0.5,0.2,0.5,0.5v7.6c0,0.3-0.2,0.5-0.5,0.5L4,12.8z M14.9,9.7c-0.3,0-0.5-0.2-0.5-0.5V7.7
	c0-0.3,0.2-0.5,0.5-0.5h1.9c0.3,0,0.5,0.2,0.5,0.5v1.5c0,0.3-0.2,0.5-0.5,0.5H14.9z M14.9,6.7c-0.3,0-0.5-0.2-0.5-0.5V4.7
	c0-0.3,0.2-0.5,0.5-0.5h1.9c0.3,0,0.5,0.2,0.5,0.5v1.5c0,0.3-0.2,0.5-0.5,0.5L14.9,6.7z"/>
</svg>
