<?xml version="1.0" encoding="utf-8"?>
<!-- Generator: Adobe Illustrator 24.0.0, SVG Export Plug-In . SVG Version: 6.00 Build 0)  -->
<svg version="1.1" id="图层_1" xmlns="http://www.w3.org/2000/svg" xmlns:xlink="http://www.w3.org/1999/xlink" x="0px" y="0px"
	 viewBox="0 0 20 20" style="enable-background:new 0 0 20 20;" xml:space="preserve">
<style type="text/css">
	.st0{fill:#B2BAC2;}
</style>
<g id="画板_9">
	<g id="组_10251" transform="translate(2126 -6317)">
		<path id="联合_373" class="st0" d="M-2124,6336c-1.1,0-2-0.9-2-2v-14c0-1.1,0.9-2,2-2h16c1.1,0,2,0.9,2,2v14c0,1.1-0.9,2-2,2
			H-2124z M-2124,6321v12c0,0.6,0.4,1,1,1h14c0.6,0,1-0.4,1-1v-12c0-0.6-0.4-1-1-1h-14C-2123.6,6320-2124,6320.4-2124,6321z
			 M-2118.9,6331.5v-0.7c0-0.4,0.1-0.9,0.3-1.3c0.2-0.4,0.4-0.8,0.7-1.1c0.4-0.4,0.9-0.8,1.4-1.2c0.5-0.3,0.9-0.7,1.2-1.2
			c0.2-0.3,0.3-0.7,0.4-1.1c0-0.8-0.4-1.2-1.3-1.2c-0.8,0-1.6,0.4-2.2,0.9v-1.7c0.8-0.5,1.7-0.8,2.7-0.8c0.8,0,1.5,0.2,2.1,0.7
			c0.5,0.5,0.8,1.2,0.8,1.9c0,0.4-0.1,0.8-0.2,1.2c-0.2,0.4-0.4,0.7-0.7,1c-0.4,0.4-0.9,0.8-1.4,1.2c-0.4,0.3-0.9,0.6-1.2,1
			c-0.2,0.2-0.3,0.4-0.3,0.6h3.9v1.6L-2118.9,6331.5z"/>
	</g>
</g>
</svg>
