<svg xmlns="http://www.w3.org/2000/svg" width="21" height="20" viewBox="0 0 21 20">
  <g id="组_11891" data-name="组 11891" transform="translate(-1788.5 -999)">
    <g id="组_11890" data-name="组 11890" transform="translate(1789 999)">
      <path id="路径_18303" data-name="路径 18303" d="M6.25,14H8.62a1.5,1.5,0,0,0,1.06-.44L15.55,7.7A1.52,1.52,0,0,0,16,6.64a1.48,1.48,0,0,0-.44-1.06L13.42,3.45a1.51,1.51,0,0,0-2.12,0L5.44,9.32A1.5,1.5,0,0,0,5,10.38v2.37A1.25,1.25,0,0,0,6.25,14Z" transform="translate(-0.5 1.492)" fill="#b2bac2"/>
      <rect id="矩形_12158" data-name="矩形 12158" width="20" height="20" fill="none"/>
    </g>
    <path id="联合_874" data-name="联合 874" d="M3806-5175h-16a2,2,0,0,1-2-2v-14a2,2,0,0,1,2-2h16a2,2,0,0,1,2,2v14A2,2,0,0,1,3806-5175Zm-15-16a1,1,0,0,0-1,1v12a1,1,0,0,0,1,1h14a1,1,0,0,0,1-1v-12a1,1,0,0,0-1-1Z" transform="translate(-1999 6193)" fill="#b2bac2" stroke="rgba(0,0,0,0)" stroke-miterlimit="10" stroke-width="1"/>
  </g>
</svg>
