<?xml version="1.0" encoding="utf-8"?>
<!-- Generator: Adobe Illustrator 24.0.0, SVG Export Plug-In . SVG Version: 6.00 Build 0)  -->
<svg version="1.1" id="图层_1" xmlns="http://www.w3.org/2000/svg" xmlns:xlink="http://www.w3.org/1999/xlink" x="0px" y="0px"
	 viewBox="0 0 20 20" style="enable-background:new 0 0 20 20;" xml:space="preserve">
<style type="text/css">
	.st0{fill:#1c6bd6;}
</style>
<g id="画板_11">
	<path id="联合_900" class="st0" d="M2,19c-1.1,0-2-0.9-2-2V3c0-1.1,0.9-2,2-2h16c1.1,0,2,0.9,2,2v14c0,1.1-0.9,2-2,2H2z M2,4v12
		c0,0.6,0.4,1,1,1h14c0.6,0,1-0.4,1-1V4c0-0.6-0.4-1-1-1H3C2.4,3,2,3.4,2,4z M13,10c0-0.8,0.7-1.5,1.5-1.5S16,9.2,16,10
		s-0.7,1.5-1.5,1.5S13,10.8,13,10z M8.5,10c0-0.8,0.7-1.5,1.5-1.5s1.5,0.7,1.5,1.5s-0.7,1.5-1.5,1.5S8.5,10.8,8.5,10z M4,10
		c0-0.8,0.7-1.5,1.5-1.5S7,9.2,7,10s-0.7,1.5-1.5,1.5S4,10.8,4,10z"/>
</g>
</svg>
